<svg data-v-423bf9ae="" xmlns="http://www.w3.org/2000/svg" viewBox="0 0 483 112" class="iconLeft"><!----><!----><!----><g data-v-423bf9ae="" id="5c6534db-dab6-47c1-8a82-5a5beef587fc" fill="#1F0C1C" transform="matrix(5.736138343811035,0,0,5.736138343811035,125.66175079345703,9.66645336151123)"><path d="M1.32 13.09Q1.16 13.09 1.06 12.99Q0.95 12.89 0.95 12.74L0.95 12.74L0.95 3.65Q0.95 3.50 1.06 3.39Q1.16 3.29 1.32 3.29L1.32 3.29L2.90 3.29Q3.25 3.29 3.40 3.60L3.40 3.60L5.81 7.91L8.23 3.60Q8.39 3.29 8.74 3.29L8.74 3.29L10.32 3.29Q10.47 3.29 10.58 3.39Q10.68 3.50 10.68 3.65L10.68 3.65L10.68 12.74Q10.68 12.89 10.58 12.99Q10.47 13.09 10.32 13.09L10.32 13.09L8.54 13.09Q8.40 13.09 8.29 12.98Q8.19 12.88 8.19 12.74L8.19 12.74L8.19 7.64L6.68 10.42Q6.50 10.74 6.19 10.74L6.19 10.74L5.43 10.74Q5.15 10.74 4.94 10.42L4.94 10.42L3.44 7.64L3.44 12.74Q3.44 12.89 3.34 12.99Q3.23 13.09 3.08 13.09L3.08 13.09L1.32 13.09ZM14.63 13.23Q13.89 13.23 13.28 12.94Q12.67 12.66 12.33 12.15Q11.98 11.65 11.98 11.05L11.98 11.05Q11.98 10.09 12.78 9.50Q13.57 8.90 14.95 8.68L14.95 8.68L16.69 8.41L16.69 8.25Q16.69 7.73 16.48 7.49Q16.27 7.25 15.76 7.25L15.76 7.25Q15.48 7.25 15.29 7.35Q15.11 7.45 14.87 7.64L14.87 7.64Q14.69 7.80 14.55 7.87L14.55 7.87Q14.49 7.97 14.41 7.97L14.41 7.97L12.78 7.97Q12.64 7.97 12.55 7.88Q12.46 7.78 12.47 7.66L12.47 7.66Q12.49 7.28 12.85 6.81Q13.22 6.34 13.96 6.01Q14.70 5.67 15.79 5.67L15.79 5.67Q17.53 5.67 18.37 6.43Q19.21 7.20 19.21 8.50L19.21 8.50L19.21 12.74Q19.21 12.88 19.11 12.98Q19.01 13.09 18.86 13.09L18.86 13.09L17.14 13.09Q17.00 13.09 16.89 12.98Q16.79 12.88 16.79 12.74L16.79 12.74L16.79 12.25Q16.48 12.68 15.93 12.96Q15.39 13.23 14.63 13.23L14.63 13.23ZM15.33 11.58Q15.95 11.58 16.33 11.17Q16.72 10.77 16.72 10.00L16.72 10.00L16.72 9.83L15.55 10.02Q14.38 10.25 14.38 10.86L14.38 10.86Q14.38 11.19 14.65 11.38Q14.92 11.58 15.33 11.58L15.33 11.58ZM21.08 4.80Q20.93 4.80 20.83 4.70Q20.73 4.59 20.73 4.44L20.73 4.44L20.73 3.14Q20.73 2.98 20.84 2.88Q20.94 2.77 21.08 2.77L21.08 2.77L22.83 2.77Q22.99 2.77 23.09 2.88Q23.20 2.98 23.20 3.14L23.20 3.14L23.20 4.44Q23.20 4.59 23.09 4.70Q22.99 4.80 22.83 4.80L22.83 4.80L21.08 4.80ZM21.08 13.09Q20.94 13.09 20.84 12.98Q20.73 12.88 20.73 12.74L20.73 12.74L20.73 6.16Q20.73 6.01 20.84 5.91Q20.94 5.81 21.08 5.81L21.08 5.81L22.83 5.81Q22.99 5.81 23.09 5.91Q23.20 6.01 23.20 6.16L23.20 6.16L23.20 12.74Q23.20 12.89 23.09 12.99Q22.99 13.09 22.83 13.09L22.83 13.09L21.08 13.09ZM25.14 13.09Q25.00 13.09 24.90 12.98Q24.79 12.88 24.79 12.74L24.79 12.74L24.79 6.16Q24.79 6.01 24.90 5.91Q25.00 5.81 25.14 5.81L25.14 5.81L26.87 5.81Q27.02 5.81 27.12 5.91Q27.22 6.01 27.22 6.16L27.22 6.16L27.22 6.69Q27.59 6.23 28.19 5.95Q28.78 5.67 29.55 5.67L29.55 5.67Q30.35 5.67 30.98 6.03Q31.60 6.40 31.96 7.11Q32.31 7.83 32.31 8.83L32.31 8.83L32.31 12.74Q32.31 12.88 32.21 12.98Q32.12 13.09 31.96 13.09L31.96 13.09L30.10 13.09Q29.95 13.09 29.84 12.99Q29.74 12.89 29.74 12.74L29.74 12.74L29.74 8.92Q29.74 8.29 29.44 7.95Q29.13 7.62 28.56 7.62L28.56 7.62Q28.00 7.62 27.68 7.96Q27.36 8.30 27.36 8.92L27.36 8.92L27.36 12.74Q27.36 12.88 27.26 12.98Q27.16 13.09 27.01 13.09L27.01 13.09L25.14 13.09ZM38.39 13.23Q36.97 13.23 36.22 12.31L36.22 12.31L36.22 12.74Q36.22 12.88 36.12 12.98Q36.02 13.09 35.87 13.09L35.87 13.09L34.20 13.09Q34.05 13.09 33.94 12.99Q33.84 12.89 33.84 12.74L33.84 12.74L33.84 3.50Q33.84 3.35 33.94 3.25Q34.05 3.15 34.20 3.15L34.20 3.15L36.01 3.15Q36.16 3.15 36.26 3.25Q36.36 3.35 36.36 3.50L36.36 3.50L36.36 6.48Q37.13 5.67 38.39 5.67L38.39 5.67Q39.73 5.67 40.52 6.54Q41.30 7.42 41.36 8.95L41.36 8.95Q41.37 9.13 41.37 9.45L41.37 9.45Q41.37 9.76 41.36 9.94L41.36 9.94Q41.30 11.52 40.52 12.38Q39.75 13.23 38.39 13.23L38.39 13.23ZM37.58 11.28Q38.21 11.28 38.48 10.91Q38.75 10.54 38.79 9.88L38.79 9.88Q38.81 9.74 38.81 9.45L38.81 9.45Q38.81 9.16 38.79 9.02L38.79 9.02Q38.75 8.36 38.48 7.99Q38.21 7.62 37.58 7.62L37.58 7.62Q36.99 7.62 36.69 7.97Q36.39 8.33 36.36 8.88L36.36 8.88Q36.34 9.06 36.34 9.39L36.34 9.39Q36.34 9.73 36.36 9.93L36.36 9.93Q36.39 10.51 36.68 10.90Q36.97 11.28 37.58 11.28L37.58 11.28ZM42.95 13.09Q42.80 13.09 42.69 12.99Q42.59 12.89 42.59 12.74L42.59 12.74L42.59 10.89Q42.59 10.74 42.69 10.63Q42.80 10.53 42.95 10.53L42.95 10.53L44.80 10.53Q44.95 10.53 45.05 10.63Q45.15 10.74 45.15 10.89L45.15 10.89L45.15 12.74Q45.15 12.88 45.05 12.98Q44.95 13.09 44.80 13.09L44.80 13.09L42.95 13.09ZM49.35 13.23Q48.12 13.23 47.36 12.40Q46.61 11.58 46.61 10.07L46.61 10.07L46.61 6.16Q46.61 6.01 46.71 5.91Q46.82 5.81 46.96 5.81L46.96 5.81L48.82 5.81Q48.97 5.81 49.08 5.91Q49.18 6.01 49.18 6.16L49.18 6.16L49.18 9.98Q49.18 11.28 50.34 11.28L50.34 11.28Q50.90 11.28 51.22 10.94Q51.53 10.60 51.53 9.98L51.53 9.98L51.53 6.16Q51.53 6.01 51.64 5.91Q51.74 5.81 51.90 5.81L51.90 5.81L53.75 5.81Q53.90 5.81 54.00 5.91Q54.10 6.01 54.10 6.16L54.10 6.16L54.10 12.74Q54.10 12.88 54.00 12.98Q53.90 13.09 53.75 13.09L53.75 13.09L52.04 13.09Q51.88 13.09 51.78 12.99Q51.67 12.89 51.67 12.74L51.67 12.74L51.67 12.21Q50.95 13.23 49.35 13.23L49.35 13.23ZM58.74 13.23Q57.60 13.23 56.83 12.91Q56.06 12.59 55.69 12.14Q55.31 11.69 55.31 11.33L55.31 11.33Q55.31 11.19 55.42 11.09Q55.52 11.00 55.65 11.00L55.65 11.00L57.34 11.00Q57.43 11.00 57.48 11.06L57.48 11.06Q57.72 11.21 57.75 11.24L57.75 11.24Q58.02 11.44 58.25 11.54Q58.48 11.65 58.80 11.65L58.80 11.65Q59.18 11.65 59.42 11.50Q59.67 11.35 59.67 11.09L59.67 11.09Q59.67 10.86 59.54 10.72Q59.40 10.58 59.03 10.45Q58.66 10.32 57.90 10.18L57.90 10.18Q55.48 9.69 55.48 7.94L55.48 7.94Q55.48 7.36 55.85 6.84Q56.22 6.31 56.95 5.99Q57.67 5.67 58.67 5.67L58.67 5.67Q59.70 5.67 60.45 5.98Q61.19 6.30 61.59 6.74Q61.98 7.18 61.98 7.55L61.98 7.55Q61.98 7.67 61.89 7.77Q61.80 7.87 61.67 7.87L61.67 7.87L60.13 7.87Q60.00 7.87 59.93 7.81L59.93 7.81Q59.77 7.73 59.60 7.60L59.60 7.60Q59.35 7.43 59.16 7.34Q58.97 7.25 58.67 7.25L58.67 7.25Q58.32 7.25 58.13 7.41Q57.93 7.56 57.93 7.80L57.93 7.80Q57.93 8.01 58.05 8.14Q58.17 8.27 58.54 8.40Q58.91 8.53 59.67 8.67L59.67 8.67Q61.04 8.90 61.66 9.51Q62.29 10.12 62.29 10.93L62.29 10.93Q62.29 11.98 61.36 12.61Q60.42 13.23 58.74 13.23L58.74 13.23Z"></path></g><!----><g data-v-423bf9ae="" id="98ec52df-00a6-4a08-83a9-4df51d5db253" transform="matrix(1.1111111640930176,0,0,1.1111111640930176,0.4444417953491211,0.4444417953491211)" stroke="none" fill="#32142D"><path d="M94 24h-2V14c0-3.3-2.415-7.208-5.366-8.683C86.634 5.317 76 0 50 0S13.367 5.317 13.367 5.317C10.415 6.792 8 10.7 8 14v10H6c-3.3 0-6 2.7-6 6v6c0 3.3 2.7 6 6 6h2v41c0 2.599 1.677 4.818 4 5.647V92c0 4.4 3.6 8 8 8s8-3.6 8-8v-3h44v3c0 4.4 3.6 8 8 8s8-3.6 8-8v-3.353c2.323-.829 4-3.049 4-5.647V42h2c3.3 0 6-2.7 6-6v-6c0-3.3-2.7-6-6-6zM30 10c0-1.1.9-2 2-2h36c1.1 0 2 .9 2 2v4c0 1.1-.9 2-2 2H32c-1.1 0-2-.9-2-2v-4zm-9 71a5 5 0 11.001-10.001A5 5 0 0121 81zm58 0a5 5 0 11.001-10.001A5 5 0 0179 81zm5-23c0 1.1-.9 2-2 2H18c-1.1 0-2-.9-2-2V26c0-1.1.9-2 2-2h64c1.1 0 2 .9 2 2v32z"></path></g><!----></svg>